<svg width="80" height="80" viewBox="0 0 80 80" fill="none" xmlns="http://www.w3.org/2000/svg">
<path d="M61.6667 31.7C59.1669 30.839 56.9603 29.291 55.3 27.2333C53.4702 24.9408 51.1402 23.0971 48.4884 21.8434C45.8365 20.5897 42.933 19.9591 40 20C36.0546 19.7206 32.1486 20.9375 29.06 23.4084C25.9714 25.8792 23.9268 29.4228 23.3334 33.3333C24.5023 31.3775 26.2615 29.8429 28.358 28.9504C30.4545 28.0579 32.78 27.8535 35 28.3667C37.4957 29.2527 39.6986 30.8098 41.3667 32.8667C43.2066 35.1409 45.541 36.9655 48.1922 38.2016C50.8435 39.4377 53.7419 40.0528 56.6667 40C60.6121 40.2794 64.5181 39.0625 67.6067 36.5916C70.6953 34.1208 72.7399 30.5772 73.3334 26.6667C72.1857 28.6459 70.432 30.2037 68.3312 31.11C66.2305 32.0163 63.894 32.2232 61.6667 31.7ZM18.3334 48.3C20.8332 49.161 23.0397 50.709 24.7 52.7667C26.5299 55.0592 28.8598 56.9029 31.5117 58.1566C34.1635 59.4103 37.067 60.0408 40 60C43.9455 60.2794 47.8514 59.0625 50.94 56.5916C54.0286 54.1208 56.0732 50.5772 56.6667 46.6667C55.4978 48.6225 53.7385 50.1571 51.642 51.0496C49.5456 51.9421 47.22 52.1465 45 51.6333C42.5044 50.7473 40.3014 49.1902 38.6334 47.1333C36.7885 44.8647 34.4532 43.0441 31.803 41.8085C29.1529 40.573 26.257 39.9546 23.3334 40C19.3879 39.7206 15.482 40.9375 12.3934 43.4084C9.30478 45.8792 7.26016 49.4228 6.66669 53.3333C7.81438 51.3541 9.56805 49.7963 11.6688 48.89C13.7696 47.9837 16.1061 47.7768 18.3334 48.3Z" fill="#00D1FF"/>
</svg>
