<svg width="80" height="80" viewBox="0 0 80 80" fill="none" xmlns="http://www.w3.org/2000/svg">
<path d="M52.2033 51.83C53.3313 51.7199 54.3727 51.1772 55.1092 50.3159C55.8457 49.4545 56.2199 48.3413 56.1533 47.21C56.1013 46.0481 55.6057 44.9503 54.7685 44.1429C53.9313 43.3355 52.8164 42.8799 51.6533 42.87H51.4933C50.3002 42.9126 49.1728 43.4268 48.3584 44.2999C47.5441 45.173 47.1095 46.3335 47.15 47.5266C47.23 48.79 47.7467 49.8166 48.4533 50.5633C45.6967 55.9266 41.5533 59.8766 35.2733 63.19C31.0533 65.4 26.5933 66.23 22.2567 65.6366C18.6267 65.1266 15.79 63.5033 14.0467 60.9C11.4467 56.95 11.2067 52.6933 13.3767 48.4333C14.7002 45.8918 16.5913 43.6893 18.9033 41.9966C18.4276 40.675 18.0586 39.3173 17.8 37.9366C6.11334 46.3033 7.30668 57.7433 10.8533 63.15C13.5 67.0966 18.9033 69.62 24.82 69.62C26.4 69.62 28.06 69.5033 29.6767 69.1066C39.9333 67.1333 47.7067 60.98 52.1667 51.9066L52.2033 51.83Z" fill="#AD00FF"/>
<path d="M66.29 41.9633C60.1767 34.7833 51.18 30.84 40.92 30.84H39.5767C38.91 29.38 37.3733 28.47 35.6333 28.47H35.5133C33.0333 28.47 31.0967 30.6033 31.1767 33.0867C31.2533 35.4533 33.2667 37.4267 35.6767 37.4267H35.8733C36.7264 37.3944 37.5521 37.1169 38.2515 36.6274C38.9508 36.1379 39.4943 35.4571 39.8167 34.6667H41.28C47.36 34.6667 53.1167 36.44 58.3667 39.9133C62.3867 42.5533 65.2733 46.0267 66.89 50.17C68.3067 53.5667 68.23 56.88 66.7733 59.6467C64.5233 63.9867 60.7333 66.2733 55.7267 66.2733C52.57 66.2733 49.49 65.2867 47.91 64.5767C46.9667 65.36 45.3833 66.6633 44.2367 67.4533C47.71 69.03 51.2233 69.94 54.6133 69.94C62.31 69.94 68.0233 65.6 70.2 61.4167C72.5633 56.6767 72.37 48.7067 66.33 41.8867L66.29 41.9633Z" fill="#AD00FF"/>
<path d="M25.49 53.25C25.5667 55.6167 27.5767 57.59 29.99 57.59H30.15C30.743 57.5764 31.3273 57.4444 31.8685 57.2016C32.4097 56.9588 32.8969 56.6101 33.3013 56.1762C33.7057 55.7423 34.0192 55.2318 34.2234 54.6749C34.4275 54.118 34.5182 53.5258 34.49 52.9333C34.49 50.5667 32.4367 48.5967 30.03 48.5967H29.87C29.71 48.5967 29.4767 48.5967 29.2767 48.67C26.0033 43.1467 24.62 37.2233 25.1367 30.84C25.45 26.0233 27.0267 21.84 29.87 18.3667C32.2367 15.4067 36.6967 13.9467 39.7367 13.8667C48.2567 13.7067 51.81 24.3267 52.0833 28.5467L56.03 29.7267C55.12 16.7867 47.0733 10 39.3767 10C32.1567 10 25.49 15.2467 22.8067 22.9467C19.1333 33.2033 21.5433 43.0667 26.0433 50.96C25.65 51.4733 25.4133 52.38 25.49 53.25Z" fill="#AD00FF"/>
</svg>
