<svg width="80" height="80" viewBox="0 0 80 80" fill="none" xmlns="http://www.w3.org/2000/svg">
<path d="M11.15 23.1167C5.29669 31.5267 6.02335 42.47 10.4967 51.4067L10.8234 52.04C10.8934 52.1733 10.96 52.3133 11.0334 52.4433C11.0734 52.5233 11.12 52.6 11.1634 52.6733C11.3736 53.0611 11.5937 53.4434 11.8234 53.82L12.0667 54.22C12.2932 54.5916 12.5277 54.9584 12.77 55.32C13.0088 55.6791 13.2544 56.0336 13.5067 56.3833L13.6267 56.5467C13.8367 56.84 14.0567 57.13 14.28 57.4167L14.5267 57.73L15.1334 58.4733L15.3634 58.7467C15.6367 59.07 15.92 59.3933 16.2034 59.71L16.22 59.7267C16.2334 59.74 16.2434 59.7467 16.2534 59.7633C16.53 60.0667 16.82 60.3667 17.1067 60.6667L17.3834 60.9433L18.0667 61.6133L18.3467 61.88C18.6534 62.17 18.9667 62.4533 19.2834 62.7333L19.2967 62.7467L19.46 62.8833C19.7367 63.1267 20.0234 63.3667 20.31 63.6L20.66 63.88C21.2725 64.3711 21.9007 64.8424 22.5434 65.2933C22.64 65.3633 22.7334 65.4333 22.8334 65.5L22.9134 65.5567C23.1667 65.7333 23.4267 65.9 23.6834 66.0667C23.7934 66.14 23.9034 66.2167 24.02 66.29C24.9776 66.9011 25.9631 67.4673 26.9734 67.9867C27.19 68.1 27.4034 68.2133 27.6234 68.3233L27.7734 68.3967L28.04 68.5267C28.38 68.6867 28.7234 68.85 29.0667 69.0033L29.2867 69.1C29.6834 69.2733 30.0834 69.44 30.4867 69.5967L30.78 69.7133C31.2021 69.8773 31.6266 70.0351 32.0534 70.1867C32.47 70.3333 32.8934 70.47 33.32 70.6L33.6267 70.6933C34.0534 70.8233 34.48 70.9767 34.9267 71.06C63.2334 76.22 71.4534 54.0533 71.4534 54.0533C64.5467 63.0467 52.2934 65.42 40.68 62.78C40.24 62.68 39.81 62.5433 39.38 62.4167L39.0567 62.32C38.2073 62.0575 37.3679 61.7639 36.54 61.44L36.23 61.32C35.83 61.1633 35.4334 60.9967 35.0434 60.8267L34.8067 60.7233C34.4701 60.5724 34.1356 60.4169 33.8034 60.2567L33.5134 60.1167C33.2534 59.99 32.9967 59.8533 32.74 59.7233C32.57 59.6333 32.3934 59.5467 32.2234 59.45C31.9112 59.2826 31.6022 59.1093 31.2967 58.93L30.9834 58.7567C30.5754 58.5164 30.172 58.2686 29.7734 58.0133L29.4467 57.7967C29.1561 57.6098 28.8683 57.4187 28.5834 57.2233L28.3067 57.0267C28.0334 56.8333 27.76 56.64 27.4934 56.44C27.124 56.163 26.7595 55.8797 26.4 55.59L26.07 55.3267C25.7634 55.0733 25.4567 54.82 25.1567 54.5567C24.7965 54.243 24.442 53.923 24.0934 53.5967C24 53.51 23.91 53.4267 23.8234 53.3367C23.5882 53.1153 23.357 52.8897 23.13 52.66L22.86 52.39C22.5727 52.096 22.2904 51.797 22.0134 51.4933L21.9734 51.4533C21.6813 51.1326 21.3946 50.807 21.1134 50.4767L20.89 50.2067C20.601 49.8644 20.3188 49.5166 20.0434 49.1633C19.7997 48.8492 19.5608 48.5314 19.3267 48.21C12.88 39.4167 10.5667 27.2867 15.7167 17.3267" fill="#0075FF"/>
<path d="M29.3133 16.03C25.08 22.12 25.3133 30.2733 28.6133 36.7133C29.1667 37.7933 29.79 38.8433 30.4833 39.84C31.12 40.75 31.82 41.83 32.6633 42.56C32.97 42.8967 33.2867 43.2233 33.61 43.5433L33.8633 43.79C34.1767 44.0967 34.4967 44.3967 34.8333 44.6933L34.87 44.7267L34.88 44.7333C35.25 45.0567 35.6267 45.3667 36.0133 45.67L36.2733 45.87C36.6718 46.1789 37.0786 46.4767 37.4933 46.7633C37.67 46.8867 37.8533 47.0033 38.03 47.12C38.1167 47.1767 38.2 47.2367 38.29 47.29C38.6193 47.5027 38.9539 47.7072 39.2933 47.9033C39.5467 48.05 39.81 48.1933 40.07 48.3367C40.1567 48.3867 40.2533 48.4333 40.3433 48.48C40.5267 48.5733 40.7033 48.67 40.8867 48.7567C41.2882 48.9551 41.6939 49.1452 42.1033 49.3267L42.35 49.43C42.66 49.56 42.97 49.6867 43.2867 49.8067L43.6767 49.9533C43.9633 50.06 44.2467 50.1533 44.53 50.25L44.92 50.3733C45.3233 50.5 45.73 50.6567 46.1533 50.73C68.0067 54.35 73.0467 37.5267 73.0467 37.5267C68.5 44.0733 59.6933 47.2 50.2967 44.76C49.4589 44.5432 48.6323 44.2852 47.82 43.9867L47.4267 43.8433C47.0305 43.6921 46.6381 43.5309 46.25 43.36C45.864 43.1916 45.4817 43.0149 45.1033 42.83C44.9133 42.7367 44.7267 42.6367 44.5367 42.54L44.2067 42.37C43.6031 42.0419 43.0106 41.6939 42.43 41.3267L42.1633 41.15C41.4714 40.6994 40.8017 40.2155 40.1567 39.7C36.0433 36.4533 32.78 32.0133 31.23 26.9833C29.6033 21.7633 29.9567 15.9067 32.77 11.15" fill="#0075FF"/>
<path d="M44.5967 10.7367C42.1 14.41 41.8533 18.9667 43.5833 23.0233C45.41 27.33 49.1533 30.7033 53.52 32.3067C53.7771 32.4028 54.0372 32.4906 54.3 32.57C54.5567 32.65 54.8067 32.7467 55.0767 32.7933C67.1433 35.1233 70.4133 26.6033 71.2833 25.3467C68.4167 29.4767 63.5967 30.4667 57.69 29.03C56.6135 28.7454 55.5656 28.3615 54.56 27.8833C53.5089 27.3761 52.5097 26.7677 51.5767 26.0667C46.2933 22.0533 43 14.3967 46.4567 8.16" fill="#0075FF"/>
</svg>
