<svg width="80" height="80" viewBox="0 0 80 80" fill="none" xmlns="http://www.w3.org/2000/svg">
<path d="M60.0067 9.99001H19.9967C17.3446 9.99792 14.8034 11.0552 12.9284 12.9308C11.0534 14.8064 9.99702 17.3479 9.98999 20V60.0067C9.99966 62.6573 11.0571 65.1966 12.9318 67.0706C14.8064 68.9446 17.346 70.0012 19.9967 70.01H60.0067C62.6567 70.0003 65.1955 68.9433 67.0694 67.0694C68.9433 65.1955 70.0003 62.6567 70.01 60.0067V20C70.0021 17.3488 68.9458 14.8083 67.0718 12.933C65.1977 11.0576 62.6579 9.99968 60.0067 9.99001ZM54.54 52.1467C54.0333 53.3467 53.2433 54.4133 52.23 55.2367C51.0317 56.1673 49.6675 56.8618 48.21 57.2833C46.5767 57.7867 44.63 58.0467 42.3767 58.0467H26.2933V23.03H43.3033C46.4467 23.03 48.97 23.74 50.86 25.1833C52.7567 26.6367 53.7067 28.79 53.7067 31.71C53.7067 33.47 53.2733 34.9867 52.41 36.2333C51.5467 37.4767 50.31 38.4467 48.7067 39.1267V39.24C50.8467 39.69 52.4967 40.7 53.5867 42.28C54.6767 43.8567 55.23 45.8433 55.23 48.2433C55.23 49.5933 54.97 50.87 54.48 52.0667L54.5467 52.1367V52.1467H54.54ZM47.5933 43.5167C46.5633 42.5767 45.13 42.12 43.27 42.12H32.4567V53.04H43.3C45.1467 53.04 46.6033 52.56 47.6267 51.59C48.6533 50.6267 49.1733 49.2533 49.1733 47.4933C49.1567 45.7667 48.6533 44.43 47.6267 43.5167H47.58H47.5933ZM46.09 36.4533C47.0867 35.6167 47.57 34.41 47.57 32.84C47.57 31.0867 47.1333 29.8333 46.2467 29.12C45.3667 28.4067 44.0933 28.0333 42.4267 28.0333H32.4233V37.6933H42.4267C43.88 37.6967 45.1267 37.27 46.09 36.4533Z" fill="#A513FF"/>
</svg>
