<svg width="80" height="80" viewBox="0 0 80 80" fill="none" xmlns="http://www.w3.org/2000/svg">
<path d="M40 6.66667C58.4067 6.66667 73.3333 21.5933 73.3333 40C73.3333 58.4067 58.4067 73.3333 40 73.3333C21.5933 73.3333 6.66666 58.4067 6.66666 40C6.66666 21.5933 21.5933 6.66667 40 6.66667ZM33.3767 51.1067C33.8633 52.8967 33.81 54.57 33.3067 56.0833L33.1267 56.5833C32.7056 57.5912 32.111 58.5175 31.37 59.32C29.43 61.43 26.7233 62.2267 25.5633 61.5567C24.3133 60.8267 24.9367 57.85 27.1867 55.4733C29.6067 52.9233 33.0733 51.28 33.0733 51.28V51.2733L33.3767 51.1067ZM60.9033 20.9367C59.3967 15.0133 49.58 13.0633 40.2867 16.3667C34.7667 18.33 28.7767 21.4167 24.4767 25.4433C19.3567 30.2233 18.5433 34.39 18.8767 36.13C20.06 42.2733 28.48 46.29 31.9433 49.27V49.2867C30.92 49.7833 23.45 53.5333 21.7033 57.4133C19.8267 61.4967 21.9967 64.4167 23.4133 64.7867C27.79 65.9967 32.2867 63.7867 34.7067 60.2067C37.0367 56.7033 36.8333 52.2067 35.83 49.9967C37.2067 49.6233 38.8267 49.4567 40.91 49.71C46.7467 50.3733 47.9133 54.0433 47.6567 55.5433C47.41 57.04 46.2033 57.9133 45.7867 58.1633C45.3667 58.4167 45.2433 58.5 45.2833 58.6667C45.3267 58.9133 45.5367 58.9133 45.8667 58.8767C46.3267 58.7933 48.9133 57.6267 49.0367 54.7867C49.16 51.2067 45.7433 47.21 39.66 47.2867C37.16 47.3333 35.5733 47.54 34.45 48C34.3742 47.8825 34.2742 47.7825 34.1567 47.7067C30.4067 43.6633 23.4467 40.83 23.74 35.4567C23.8233 33.4967 24.53 28.3333 37.0733 22.0833C47.3667 16.9567 55.5767 18.3767 56.9967 21.5C59.03 25.9533 52.6167 34.25 41.91 35.4567C37.8267 35.9167 35.7033 34.3333 35.1567 33.7467C34.5767 33.12 34.4967 33.08 34.2867 33.21C33.95 33.3767 34.16 33.9167 34.2867 34.2533C34.62 35.0833 35.91 36.5467 38.1633 37.2933C40.12 37.92 44.91 38.29 50.6633 36.0433C57.12 33.5467 62.16 26.5833 60.7033 20.75L60.9033 20.9367Z" fill="#FF00B8"/>
</svg>
