<svg width="80" height="80" viewBox="0 0 80 80" fill="none" xmlns="http://www.w3.org/2000/svg">
<path d="M40 43.4333C43.2861 43.4333 45.95 40.7694 45.95 37.4833C45.95 34.1972 43.2861 31.5333 40 31.5333C36.7139 31.5333 34.05 34.1972 34.05 37.4833C34.05 40.7694 36.7139 43.4333 40 43.4333Z" fill="#0075FF"/>
<path d="M23.34 49.3133L22.0233 48.9767C12.2433 46.5067 6.63333 42.3067 6.63333 37.47C6.63333 32.63 12.2467 28.4333 22.0233 25.9633L23.34 25.63L23.71 26.9333C24.6985 30.3457 25.9649 33.6712 27.4967 36.8767L27.78 37.47L27.4967 38.0633C25.9633 41.2733 24.6933 44.6 23.71 48.0133L23.34 49.3133ZM21.4167 28.9967C13.9867 31.09 9.42333 34.2833 9.42333 37.47C9.42333 40.65 13.9833 43.8467 21.4167 45.9367C22.3267 43.0433 23.4267 40.2133 24.7 37.47C23.4174 34.7221 22.3205 31.8913 21.4167 28.9967ZM56.6567 49.3133L56.29 48.0067C55.2989 44.5937 54.0314 41.2671 52.5 38.06L52.2167 37.47L52.5 36.8733C54.0333 33.67 55.2967 30.34 56.29 26.9267L56.6567 25.6267L57.9733 25.96C67.7567 28.43 73.3633 32.6267 73.3633 37.47C73.3633 42.31 67.7533 46.5067 57.9733 48.9767L56.6567 49.3133ZM55.29 37.47C56.6233 40.3567 57.7333 43.1967 58.58 45.9367C66.0133 43.8467 70.5767 40.65 70.5767 37.47C70.5767 34.2833 66.0167 31.0933 58.58 28.9967C57.6709 31.8904 56.5719 34.721 55.29 37.47Z" fill="#0075FF"/>
<path d="M21.3967 28.9833L21.03 27.6833C18.2767 17.99 19.11 11.0467 23.32 8.62667C27.4367 6.24334 34.06 9.06001 40.9967 16.1767L41.9433 17.15L40.9967 18.12C38.5329 20.6823 36.2811 23.4402 34.2633 26.3667L33.8867 26.9067L33.2333 26.96C29.6853 27.2387 26.1658 27.8061 22.71 28.6567L21.3967 28.9833ZM26.67 10.5533C25.9233 10.5533 25.2633 10.7167 24.7067 11.0367C21.9467 12.6267 21.46 18.1633 23.36 25.6367C26.33 24.98 29.3267 24.51 32.3467 24.2467C34.0951 21.7669 36.0024 19.403 38.0567 17.17C33.7133 12.9467 29.6133 10.5533 26.67 10.5533ZM53.3267 67.1667C49.3667 67.1667 44.28 64.18 39 58.76L38.0567 57.79L39 56.8233C41.4641 54.2569 43.717 51.4957 45.7367 48.5667L46.11 48.0333L46.7567 47.97C50.306 47.6963 53.8267 47.131 57.2833 46.28L58.6 45.9467L58.97 47.25C61.71 56.9367 60.88 63.89 56.6767 66.31C55.6561 66.8885 54.4997 67.1842 53.3267 67.1667ZM41.9433 57.7667C46.2833 61.99 50.3867 64.3867 53.3267 64.3867C54.0767 64.3867 54.7367 64.22 55.29 63.9033C58.0533 62.31 58.5433 56.7633 56.6367 49.29C53.67 49.95 50.67 50.4233 47.6433 50.6867C45.9024 53.1704 43.9982 55.5356 41.9433 57.7667Z" fill="#0075FF"/>
<path d="M58.6 28.9833L57.2833 28.6533C53.8269 27.8001 50.3061 27.2327 46.7567 26.9567L46.11 26.9L45.7367 26.36C43.7198 23.432 41.4668 20.6739 39 18.1133L38.0567 17.1433L39 16.1767C45.9333 9.06335 52.5533 6.24668 56.6767 8.62668C60.8833 11.05 61.72 17.9933 58.97 27.6833L58.6 28.9833ZM47.6433 24.2467C50.8233 24.53 53.8367 25.0067 56.6367 25.6367C58.54 18.1633 58.0533 12.6267 55.29 11.0333C52.5433 9.44335 47.3733 11.8767 41.9433 17.17C43.9967 19.4033 45.9033 21.7633 47.6433 24.2467ZM26.67 67.1667C25.4971 67.1834 24.3409 66.8878 23.32 66.31C19.11 63.89 18.2767 56.94 21.0267 47.25L21.3867 45.9467L22.7033 46.28C25.9167 47.09 29.4567 47.66 33.23 47.97L33.8767 48.0333L34.2533 48.5667C36.2667 51.4934 38.52 54.2567 40.9867 56.8234L41.9333 57.79L40.9867 58.76C35.71 64.1833 30.6233 67.1667 26.67 67.1667ZM23.36 49.2934C21.46 56.7667 21.9467 62.3134 24.7067 63.9067C27.4567 65.4734 32.61 63.0567 38.0567 57.7667C36.0032 55.533 34.0959 53.1692 32.3467 50.69C29.3237 50.4227 26.3216 49.9561 23.36 49.2934Z" fill="#0075FF"/>
<path d="M40 51.0433C37.71 51.0433 35.36 50.9467 33 50.75L32.3467 50.6933L31.97 50.1533C30.6392 48.2397 29.387 46.2725 28.2167 44.2567C27.055 42.2354 25.9752 40.1682 24.98 38.06L24.7 37.47L24.98 36.8733C25.9767 34.7667 27.0533 32.7 28.2167 30.68C29.3733 28.6933 30.6367 26.7067 31.97 24.78L32.3467 24.2467L33 24.1867C37.6563 23.7967 42.3371 23.7967 46.9933 24.1867L47.64 24.25L48.0167 24.7833C50.6827 28.6125 53.0241 32.6577 55.0167 36.8767L55.2933 37.4733L55.0167 38.0633C53.0296 42.2852 50.6879 46.3308 48.0167 50.1567L47.64 50.6967L46.9933 50.7533C44.64 50.9433 42.2867 51.0433 40 51.0433ZM33.8867 48.03C38.0033 48.34 41.9967 48.34 46.11 48.03C48.4063 44.6674 50.4476 41.1375 52.2167 37.47C50.4538 33.7992 48.4123 30.2689 46.11 26.91C42.0416 26.5967 37.9551 26.5967 33.8867 26.91C31.5825 30.2677 29.5409 33.7981 27.78 37.47C29.5529 41.1355 31.594 44.6651 33.8867 48.03Z" fill="#0075FF"/>
</svg>
